<mxfile host="65bd71144e">
    <diagram id="lvvmtITHsXPQKXz9Gbn9" name="Page-1">
        <mxGraphModel dx="637" dy="811" grid="1" gridSize="10" guides="1" tooltips="1" connect="1" arrows="1" fold="1" page="1" pageScale="1" pageWidth="850" pageHeight="1100" math="0" shadow="0">
            <root>
                <mxCell id="0"/>
                <mxCell id="1" parent="0"/>
                <mxCell id="4" style="edgeStyle=none;html=1;dashed=1;endArrow=none;endFill=0;" edge="1" parent="1">
                    <mxGeometry relative="1" as="geometry">
                        <mxPoint x="158" y="600" as="targetPoint"/>
                        <mxPoint x="158" y="190" as="sourcePoint"/>
                    </mxGeometry>
                </mxCell>
                <mxCell id="2" value="Student" style="shape=umlActor;verticalLabelPosition=bottom;verticalAlign=top;html=1;outlineConnect=0;" vertex="1" parent="1">
                    <mxGeometry x="143" y="110" width="30" height="60" as="geometry"/>
                </mxCell>
                <mxCell id="3" value="Student" style="shape=umlActor;verticalLabelPosition=top;verticalAlign=bottom;html=1;outlineConnect=0;align=center;labelPosition=center;" vertex="1" parent="1">
                    <mxGeometry x="143" y="620" width="30" height="60" as="geometry"/>
                </mxCell>
                <mxCell id="11" style="edgeStyle=none;html=1;entryX=0.5;entryY=0;entryDx=0;entryDy=0;dashed=1;endArrow=none;endFill=0;" edge="1" parent="1" source="5" target="8">
                    <mxGeometry relative="1" as="geometry"/>
                </mxCell>
                <mxCell id="5" value="Registration System" style="rounded=1;whiteSpace=wrap;html=1;" vertex="1" parent="1">
                    <mxGeometry x="270" y="160" width="140" height="30" as="geometry"/>
                </mxCell>
                <mxCell id="12" style="edgeStyle=none;html=1;entryX=0.5;entryY=0;entryDx=0;entryDy=0;dashed=1;endArrow=none;endFill=0;" edge="1" parent="1" source="6" target="9">
                    <mxGeometry relative="1" as="geometry"/>
                </mxCell>
                <mxCell id="6" value="Course Catalog" style="rounded=1;whiteSpace=wrap;html=1;" vertex="1" parent="1">
                    <mxGeometry x="510" y="160" width="120" height="30" as="geometry"/>
                </mxCell>
                <mxCell id="33" style="edgeStyle=none;html=1;entryX=0.5;entryY=0;entryDx=0;entryDy=0;endArrow=none;endFill=0;dashed=1;" edge="1" parent="1" source="7" target="10">
                    <mxGeometry relative="1" as="geometry"/>
                </mxCell>
                <mxCell id="7" value="Enrollment System" style="rounded=1;whiteSpace=wrap;html=1;" vertex="1" parent="1">
                    <mxGeometry x="652" y="160" width="120" height="30" as="geometry"/>
                </mxCell>
                <mxCell id="8" value="Registration System" style="rounded=1;whiteSpace=wrap;html=1;" vertex="1" parent="1">
                    <mxGeometry x="270" y="665" width="140" height="30" as="geometry"/>
                </mxCell>
                <mxCell id="9" value="Course Catalog" style="rounded=1;whiteSpace=wrap;html=1;" vertex="1" parent="1">
                    <mxGeometry x="510" y="665" width="120" height="30" as="geometry"/>
                </mxCell>
                <mxCell id="10" value="Enrollment System" style="rounded=1;whiteSpace=wrap;html=1;" vertex="1" parent="1">
                    <mxGeometry x="653" y="665" width="120" height="30" as="geometry"/>
                </mxCell>
                <mxCell id="14" value="" style="endArrow=classic;html=1;endFill=1;" edge="1" parent="1">
                    <mxGeometry width="50" height="50" relative="1" as="geometry">
                        <mxPoint x="160" y="240" as="sourcePoint"/>
                        <mxPoint x="340" y="240" as="targetPoint"/>
                    </mxGeometry>
                </mxCell>
                <mxCell id="15" value="Request course registration" style="text;html=1;align=center;verticalAlign=middle;resizable=0;points=[];autosize=1;strokeColor=none;fillColor=none;" vertex="1" parent="1">
                    <mxGeometry x="165" y="215" width="170" height="30" as="geometry"/>
                </mxCell>
                <mxCell id="16" value="" style="endArrow=classic;html=1;" edge="1" parent="1">
                    <mxGeometry width="50" height="50" relative="1" as="geometry">
                        <mxPoint x="340" y="280" as="sourcePoint"/>
                        <mxPoint x="570" y="280" as="targetPoint"/>
                    </mxGeometry>
                </mxCell>
                <mxCell id="17" value="Requests course information" style="text;html=1;align=center;verticalAlign=middle;resizable=0;points=[];autosize=1;strokeColor=none;fillColor=none;" vertex="1" parent="1">
                    <mxGeometry x="364" y="255" width="180" height="30" as="geometry"/>
                </mxCell>
                <mxCell id="18" value="" style="endArrow=classic;html=1;dashed=1;" edge="1" parent="1">
                    <mxGeometry width="50" height="50" relative="1" as="geometry">
                        <mxPoint x="570" y="320" as="sourcePoint"/>
                        <mxPoint x="340" y="320" as="targetPoint"/>
                    </mxGeometry>
                </mxCell>
                <mxCell id="19" value="Sends course information" style="text;html=1;align=center;verticalAlign=middle;resizable=0;points=[];autosize=1;strokeColor=none;fillColor=none;" vertex="1" parent="1">
                    <mxGeometry x="374" y="294" width="160" height="30" as="geometry"/>
                </mxCell>
                <mxCell id="21" value="" style="endArrow=classic;html=1;" edge="1" parent="1">
                    <mxGeometry width="50" height="50" relative="1" as="geometry">
                        <mxPoint x="340" y="360" as="sourcePoint"/>
                        <mxPoint x="710" y="360" as="targetPoint"/>
                    </mxGeometry>
                </mxCell>
                <mxCell id="22" value="Requests enrollment information" style="text;html=1;align=center;verticalAlign=middle;resizable=0;points=[];autosize=1;strokeColor=none;fillColor=none;" vertex="1" parent="1">
                    <mxGeometry x="354" y="336" width="200" height="30" as="geometry"/>
                </mxCell>
                <mxCell id="23" value="" style="endArrow=classic;html=1;dashed=1;" edge="1" parent="1">
                    <mxGeometry width="50" height="50" relative="1" as="geometry">
                        <mxPoint x="710" y="400" as="sourcePoint"/>
                        <mxPoint x="340" y="400" as="targetPoint"/>
                    </mxGeometry>
                </mxCell>
                <mxCell id="24" value="Sends enrollment information" style="text;html=1;align=center;verticalAlign=middle;resizable=0;points=[];autosize=1;strokeColor=none;fillColor=none;" vertex="1" parent="1">
                    <mxGeometry x="364" y="375" width="180" height="30" as="geometry"/>
                </mxCell>
                <mxCell id="25" value="" style="endArrow=classic;html=1;" edge="1" parent="1">
                    <mxGeometry width="50" height="50" relative="1" as="geometry">
                        <mxPoint x="340" y="440" as="sourcePoint"/>
                        <mxPoint x="710" y="440" as="targetPoint"/>
                    </mxGeometry>
                </mxCell>
                <mxCell id="26" value="" style="endArrow=classic;html=1;" edge="1" parent="1">
                    <mxGeometry width="50" height="50" relative="1" as="geometry">
                        <mxPoint x="340" y="520" as="sourcePoint"/>
                        <mxPoint x="710" y="520" as="targetPoint"/>
                    </mxGeometry>
                </mxCell>
                <mxCell id="27" value="" style="endArrow=classic;html=1;" edge="1" parent="1">
                    <mxGeometry width="50" height="50" relative="1" as="geometry">
                        <mxPoint x="340" y="600" as="sourcePoint"/>
                        <mxPoint x="710" y="600" as="targetPoint"/>
                    </mxGeometry>
                </mxCell>
                <mxCell id="29" value="" style="endArrow=classic;html=1;dashed=1;" edge="1" parent="1">
                    <mxGeometry width="50" height="50" relative="1" as="geometry">
                        <mxPoint x="710" y="480" as="sourcePoint"/>
                        <mxPoint x="340" y="480" as="targetPoint"/>
                    </mxGeometry>
                </mxCell>
                <mxCell id="30" value="" style="endArrow=classic;html=1;dashed=1;" edge="1" parent="1">
                    <mxGeometry width="50" height="50" relative="1" as="geometry">
                        <mxPoint x="710" y="560" as="sourcePoint"/>
                        <mxPoint x="340" y="560" as="targetPoint"/>
                    </mxGeometry>
                </mxCell>
                <mxCell id="31" value="" style="endArrow=classic;html=1;dashed=1;" edge="1" parent="1">
                    <mxGeometry width="50" height="50" relative="1" as="geometry">
                        <mxPoint x="710" y="640" as="sourcePoint"/>
                        <mxPoint x="340" y="640" as="targetPoint"/>
                    </mxGeometry>
                </mxCell>
                <mxCell id="34" value="Requests enrollment status" style="text;html=1;align=center;verticalAlign=middle;resizable=0;points=[];autosize=1;strokeColor=none;fillColor=none;" vertex="1" parent="1">
                    <mxGeometry x="364" y="417" width="170" height="30" as="geometry"/>
                </mxCell>
                <mxCell id="35" value="Sends enrollment status" style="text;html=1;align=center;verticalAlign=middle;resizable=0;points=[];autosize=1;strokeColor=none;fillColor=none;" vertex="1" parent="1">
                    <mxGeometry x="375" y="454" width="150" height="30" as="geometry"/>
                </mxCell>
                <mxCell id="36" value="Enrolls in course" style="text;html=1;align=center;verticalAlign=middle;resizable=0;points=[];autosize=1;strokeColor=none;fillColor=none;" vertex="1" parent="1">
                    <mxGeometry x="385" y="495" width="110" height="30" as="geometry"/>
                </mxCell>
                <mxCell id="37" value="Sends enrollment confirmation" style="text;html=1;align=center;verticalAlign=middle;resizable=0;points=[];autosize=1;strokeColor=none;fillColor=none;" vertex="1" parent="1">
                    <mxGeometry x="356" y="535" width="190" height="30" as="geometry"/>
                </mxCell>
                <mxCell id="38" value="Requests enrollment receipt" style="text;html=1;align=center;verticalAlign=middle;resizable=0;points=[];autosize=1;strokeColor=none;fillColor=none;" vertex="1" parent="1">
                    <mxGeometry x="365" y="574" width="170" height="30" as="geometry"/>
                </mxCell>
                <mxCell id="39" value="Sends enrollment receipt" style="text;html=1;align=center;verticalAlign=middle;resizable=0;points=[];autosize=1;strokeColor=none;fillColor=none;" vertex="1" parent="1">
                    <mxGeometry x="360" y="615" width="160" height="30" as="geometry"/>
                </mxCell>
            </root>
        </mxGraphModel>
    </diagram>
</mxfile>
